<svg width="3729" height="1209" xmlns="http://www.w3.org/2000/svg" xmlns:xlink="http://www.w3.org/1999/xlink" xml:space="preserve" overflow="hidden"><g transform="translate(-84 -369)"><text fill="#FFFFFF" font-family="Segoe UI,Segoe UI_MSFontService,sans-serif" font-weight="400" font-size="564" transform="matrix(1 0 0 1 423.465 1111)">SWIFTz</text><text fill="#FFFFFF" font-family="Segoe UI,Segoe UI_MSFontService,sans-serif" font-weight="400" font-size="564" transform="matrix(1 0 0 1 2657.68 1111)">om</text><path d="M2308 975.5C2308 897.352 2371.35 834 2449.5 834 2527.65 834 2591 897.352 2591 975.5 2591 1053.65 2527.65 1117 2449.5 1117 2371.35 1117 2308 1053.65 2308 975.5Z" stroke="#FFC000" stroke-width="42.3958" stroke-linejoin="round" stroke-miterlimit="10" fill="none" fill-rule="evenodd"/><path d="M2222.84 1399.04 2204.42 1388.41C2194.7 1382.79 2191.37 1370.37 2196.98 1360.65L2351.39 1093.21 2405 1124.17 2250.6 1391.6C2244.98 1401.32 2232.56 1404.65 2222.84 1399.04Z" fill="#FFC000" fill-rule="evenodd"/><path d="M2227.53 1384.93 2214.28 1377.28C2207.3 1373.25 2204.9 1364.31 2208.94 1357.32L2350.95 1111.35 2389.51 1133.61 2247.49 1379.59C2243.46 1386.57 2234.52 1388.97 2227.53 1384.93Z" fill="#222A35" fill-rule="evenodd"/><path d="M2491.87 881.029C2530.2 902.431 2554.36 940.957 2555.92 983.168" stroke="#FFC000" stroke-width="10.3125" stroke-miterlimit="8" fill="none" fill-rule="evenodd"/><path d="M2455.88 869.55C2463.19 870.978 2470.35 872.996 2477.3 875.582" stroke="#FFC000" stroke-width="10.3125" stroke-miterlimit="8" fill="none" fill-rule="evenodd"/><path d="M1325 441.5C1406.46 441.5 1472.5 507.762 1472.5 589.5" stroke="#FFC000" stroke-width="6.875" stroke-miterlimit="8" fill="none" fill-rule="evenodd"/><path d="M1325 589.5C1243.54 589.5 1177.5 523.462 1177.5 442" stroke="#FFC000" stroke-width="6.875" stroke-miterlimit="8" fill="none" fill-rule="evenodd"/><path d="M1258.5 520.5C1258.5 438.762 1324.76 372.5 1406.5 372.5" stroke="#FFC000" stroke-width="6.875" stroke-miterlimit="8" fill="none" fill-rule="evenodd"/><path d="M1406.5 520.5C1406.5 602.238 1340.46 668.5 1259 668.5" stroke="#FFC000" stroke-width="6.875" stroke-miterlimit="8" fill="none" fill-rule="evenodd"/><path d="M1295 519C1295 498.565 1311.57 482 1332 482 1352.43 482 1369 498.565 1369 519 1369 539.434 1352.43 556 1332 556 1311.57 556 1295 539.434 1295 519Z" stroke="#FFC000" stroke-width="13.75" stroke-linejoin="round" stroke-miterlimit="10" fill="none" fill-rule="evenodd"/><path d="M1282 659C1282 649.059 1290.06 641 1300 641 1309.94 641 1318 649.059 1318 659 1318 668.941 1309.94 677 1300 677 1290.06 677 1282 668.941 1282 659Z" fill="#FFC000" fill-rule="evenodd"/><path d="M1429 509C1429 499.059 1437.06 491 1447 491 1456.94 491 1465 499.059 1465 509 1465 518.941 1456.94 527 1447 527 1437.06 527 1429 518.941 1429 509Z" fill="#FFC000" fill-rule="evenodd"/><path d="M1189 528C1189 518.059 1197.06 510 1207 510 1216.94 510 1225 518.059 1225 528 1225 537.941 1216.94 546 1207 546 1197.06 546 1189 537.941 1189 528Z" fill="#FFC000" fill-rule="evenodd"/><path d="M1318 391C1318 381.059 1326.06 373 1336 373 1345.94 373 1354 381.059 1354 391 1354 400.941 1345.94 409 1336 409 1326.06 409 1318 400.941 1318 391Z" fill="#FFC000" fill-rule="evenodd"/></g></svg>