<svg width="1134" height="378" xmlns="http://www.w3.org/2000/svg" xmlns:xlink="http://www.w3.org/1999/xlink" overflow="hidden"><g><rect x="0" y="0" width="1134" height="377.944" fill="#FFFFFF"/><text fill="#FFFFFF" font-family="Segoe UI,Segoe UI_MSFontService,sans-serif" font-weight="400" font-size="164" transform="matrix(1 0 0 0.999853 123.208 240)">SWIFTz</text><text fill="#FFFFFF" font-family="Segoe UI,Segoe UI_MSFontService,sans-serif" font-weight="400" font-size="164" transform="matrix(1 0 0 0.999853 773.257 240)">om</text><path d="M674 199.971C674 177.33 692.58 158.977 715.5 158.977 738.42 158.977 757 177.33 757 199.971 757 222.611 738.42 240.965 715.5 240.965 692.58 240.965 674 222.611 674 199.971Z" stroke="#FFC000" stroke-width="12.3351" stroke-linejoin="round" stroke-miterlimit="10" fill="none" fill-rule="evenodd"/><path d="M649.536 323.298 644.176 320.204C641.348 318.571 640.379 314.956 642.012 312.129L686.936 234.329 702.536 243.334 657.612 321.134C655.979 323.962 652.363 324.93 649.536 323.298Z" fill="#FFC000" fill-rule="evenodd"/><path d="M650.902 319.194 647.047 316.969C645.014 315.795 644.317 313.195 645.491 311.162L686.81 239.605 698.029 246.081 656.709 317.638C655.535 319.671 652.935 320.368 650.902 319.194Z" fill="#222A35" fill-rule="evenodd"/><path d="M728.716 173.417C739.94 179.649 747.019 190.887 747.476 203.204" stroke="#FFC000" stroke-width="3.00044" stroke-miterlimit="8" fill="none" fill-rule="evenodd"/><path d="M718.088 170.19C720.194 170.591 722.26 171.158 724.263 171.885" stroke="#FFC000" stroke-width="3.00044" stroke-miterlimit="8" fill="none" fill-rule="evenodd"/><path d="M385 45.9933C408.748 45.9933 428 65.2422 428 88.987" stroke="#FFC000" stroke-width="2.00029" stroke-miterlimit="8" fill="none" fill-rule="evenodd"/><path d="M385 88.9869C361.252 88.9869 342 69.7379 342 45.9931" stroke="#FFC000" stroke-width="2.00029" stroke-miterlimit="8" fill="none" fill-rule="evenodd"/><path d="M366 67.99C366 44.2452 385.252 24.9963 409 24.9963" stroke="#FFC000" stroke-width="2" stroke-miterlimit="8" fill="none" fill-rule="evenodd"/><path d="M409 67.99C409 91.7347 389.748 110.984 366 110.984" stroke="#FFC000" stroke-width="2" stroke-miterlimit="8" fill="none" fill-rule="evenodd"/><path d="M377 68.4899C377 62.6918 381.701 57.9915 387.5 57.9915 393.299 57.9915 398 62.6918 398 68.4899 398 74.288 393.299 78.9883 387.5 78.9883 381.701 78.9883 377 74.288 377 68.4899Z" stroke="#FFC000" stroke-width="4.00059" stroke-linejoin="round" stroke-miterlimit="10" fill="none" fill-rule="evenodd"/><path d="M373 108.984C373 106.223 375.239 103.985 378 103.985 380.761 103.985 383 106.223 383 108.984 383 111.745 380.761 113.983 378 113.983 375.239 113.983 373 111.745 373 108.984Z" stroke="#FFFFFF" stroke-width="2.00029" stroke-miterlimit="8" fill="#FFC000" fill-rule="evenodd"/><path d="M416 65.4904C416 62.4533 418.239 59.9912 421 59.9912 423.761 59.9912 426 62.4533 426 65.4904 426 68.5275 423.761 70.9896 421 70.9896 418.239 70.9896 416 68.5275 416 65.4904Z" stroke="#FFFFFF" stroke-width="2.00029" stroke-miterlimit="8" fill="#FFC000" fill-rule="evenodd"/><path d="M346 70.9896C346 68.2286 348.239 65.9903 351 65.9903 353.761 65.9903 356 68.2286 356 70.9896 356 73.7506 353.761 75.9889 351 75.9889 348.239 75.9889 346 73.7506 346 70.9896Z" stroke="#FFFFFF" stroke-width="2.00029" stroke-miterlimit="8" fill="#FFC000" fill-rule="evenodd"/><path d="M383 30.9955C383 28.2345 385.462 25.9962 388.5 25.9962 391.538 25.9962 394 28.2345 394 30.9955 394 33.7565 391.538 35.9948 388.5 35.9948 385.462 35.9948 383 33.7565 383 30.9955Z" stroke="#FFFFFF" stroke-width="2.00029" stroke-miterlimit="8" fill="#FFC000" fill-rule="evenodd"/></g></svg>