<svg width="3729" height="1208" xmlns="http://www.w3.org/2000/svg" xmlns:xlink="http://www.w3.org/1999/xlink" xml:space="preserve" overflow="hidden"><g transform="translate(-84 -85)"><text fill="#FFFFFF" font-family="Segoe UI,Segoe UI_MSFontService,sans-serif" font-weight="400" font-size="564" transform="matrix(1 0 0 1 423.465 826)">SWIFTz</text><text fill="#FFFFFF" font-family="Segoe UI,Segoe UI_MSFontService,sans-serif" font-weight="400" font-size="564" transform="matrix(1 0 0 1 2657.68 826)">om</text><path d="M2318 688C2318 610.128 2381.13 547 2459 547 2536.87 547 2600 610.128 2600 688 2600 765.872 2536.87 829 2459 829 2381.13 829 2318 765.872 2318 688Z" stroke="#FFC000" stroke-width="42.3958" stroke-linejoin="round" stroke-miterlimit="10" fill="none" fill-rule="evenodd"/><path d="M2232.45 1111.34 2214.03 1100.7C2204.31 1095.09 2200.98 1082.66 2206.59 1072.94L2361 805.506 2414.61 836.461 2260.21 1103.9C2254.6 1113.62 2242.17 1116.95 2232.45 1111.34Z" fill="#FFC000" fill-rule="evenodd"/><path d="M2237.15 1097.23 2223.9 1089.58C2216.91 1085.55 2214.51 1076.61 2218.55 1069.62L2360.56 823.644 2399.12 845.905 2257.11 1091.88C2253.07 1098.87 2244.13 1101.26 2237.15 1097.23Z" fill="#222A35" fill-rule="evenodd"/><path d="M2501.44 592.925C2540.01 614.3 2564.34 652.874 2565.92 695.151" stroke="#FFC000" stroke-width="10.3125" stroke-miterlimit="8" fill="none" fill-rule="evenodd"/><path d="M2465.88 581.55C2473.19 582.978 2480.35 584.996 2487.3 587.582" stroke="#FFC000" stroke-width="10.3125" stroke-miterlimit="8" fill="none" fill-rule="evenodd"/><path d="M1325 157.5C1406.46 157.5 1472.5 223.538 1472.5 305" stroke="#FFC000" stroke-width="6.875" stroke-miterlimit="8" fill="none" fill-rule="evenodd"/><path d="M1325 304.5C1243.54 304.5 1177.5 238.462 1177.5 157" stroke="#FFC000" stroke-width="6.875" stroke-miterlimit="8" fill="none" fill-rule="evenodd"/><path d="M1258.5 236C1258.5 154.538 1324.76 88.4998 1406.5 88.4998" stroke="#FFC000" stroke-width="6.875" stroke-miterlimit="8" fill="none" fill-rule="evenodd"/><path d="M1406.5 236C1406.5 317.462 1340.46 383.5 1259 383.5" stroke="#FFC000" stroke-width="6.875" stroke-miterlimit="8" fill="none" fill-rule="evenodd"/><path d="M1295 235C1295 214.565 1311.57 198 1332 198 1352.43 198 1369 214.565 1369 235 1369 255.434 1352.43 272 1332 272 1311.57 272 1295 255.434 1295 235Z" stroke="#FFC000" stroke-width="13.75" stroke-linejoin="round" stroke-miterlimit="10" fill="none" fill-rule="evenodd"/><path d="M1282.5 375C1282.5 365.335 1290.56 357.5 1300.5 357.5 1310.44 357.5 1318.5 365.335 1318.5 375 1318.5 384.665 1310.44 392.5 1300.5 392.5 1290.56 392.5 1282.5 384.665 1282.5 375Z" stroke="#FFFFFF" stroke-width="6.875" stroke-miterlimit="8" fill="#FFC000" fill-rule="evenodd"/><path d="M1429.5 225C1429.5 215.335 1437.56 207.5 1447.5 207.5 1457.44 207.5 1465.5 215.335 1465.5 225 1465.5 234.665 1457.44 242.5 1447.5 242.5 1437.56 242.5 1429.5 234.665 1429.5 225Z" stroke="#FFFFFF" stroke-width="6.875" stroke-miterlimit="8" fill="#FFC000" fill-rule="evenodd"/><path d="M1189.5 244C1189.5 234.335 1197.56 226.5 1207.5 226.5 1217.44 226.5 1225.5 234.335 1225.5 244 1225.5 253.665 1217.44 261.5 1207.5 261.5 1197.56 261.5 1189.5 253.665 1189.5 244Z" stroke="#FFFFFF" stroke-width="6.875" stroke-miterlimit="8" fill="#FFC000" fill-rule="evenodd"/><path d="M1318.5 106.5C1318.5 96.5587 1326.56 88.4998 1336.5 88.4998 1346.44 88.4998 1354.5 96.5587 1354.5 106.5 1354.5 116.441 1346.44 124.5 1336.5 124.5 1326.56 124.5 1318.5 116.441 1318.5 106.5Z" stroke="#FFFFFF" stroke-width="6.875" stroke-miterlimit="8" fill="#FFC000" fill-rule="evenodd"/></g></svg>